<svg width="56" height="56" viewBox="0 0 56 56" fill="none" xmlns="http://www.w3.org/2000/svg">
<path d="M0 8C0 3.58172 3.58172 0 8 0H36.1046C39.0439 0 41.7465 1.61185 43.1435 4.19801L53.9464 24.198C55.228 26.5707 55.228 29.4293 53.9464 31.802L43.1435 51.802C41.7465 54.3881 39.044 56 36.1046 56H8.00001C3.58173 56 0 52.4183 0 48V8Z" fill="white"/>
<path d="M21.1375 38.8369C20.9 38.8369 20.6625 38.7494 20.475 38.5619C20.1125 38.1994 20.1125 37.5994 20.475 37.2369L28.625 29.0869C29.225 28.4869 29.225 27.5119 28.625 26.9119L20.475 18.7619C20.1125 18.3994 20.1125 17.7994 20.475 17.4369C20.8375 17.0744 21.4375 17.0744 21.8 17.4369L29.95 25.5869C30.5875 26.2244 30.95 27.0869 30.95 27.9994C30.95 28.9119 30.6 29.7744 29.95 30.4119L21.8 38.5619C21.6125 38.7369 21.375 38.8369 21.1375 38.8369Z" fill="#3B3B3B"/>
</svg>
